<?xml version="1.0" encoding="iso-8859-1"?>
<!-- Generator: Adobe Illustrator 21.1.0, SVG Export Plug-In . SVG Version: 6.00 Build 0)  -->
<svg version="1.1" id="Layer_1" xmlns="http://www.w3.org/2000/svg" xmlns:xlink="http://www.w3.org/1999/xlink" x="0px" y="0px"
	 viewBox="0 0 57 64" style="enable-background:new 0 0 57 64;" xml:space="preserve">
<title>icon-engineering</title>
<desc>Created with Sketch.</desc>
<g id="Design">
	<g id="Home-_x5B_Mobile_x5D_" transform="translate(-255.000000, -1936.000000)">
		<g id="icon-engineering" transform="translate(256.000000, 1937.000000)">
			
				<polygon id="Stroke-1" style="fill:none;stroke:#3A53A4;stroke-width:1.25;stroke-linecap:round;stroke-linejoin:round;" points="
				21.5,28.023 27.5,24.5 33.5,28.023 33.5,33.977 27.5,37.5 21.5,33.977 			"/>
			
				<polygon id="Stroke-2" style="fill:none;stroke:#3A53A4;stroke-width:1.25;stroke-linecap:round;stroke-linejoin:round;" points="
				39.571,29.465 44.5,24.617 42.06,20.397 35.269,22.118 31.176,19.78 29.714,14.5 24.786,14.5 23.324,19.78 19.231,22.118 
				12.44,20.397 10,24.617 14.929,29.465 14.929,33.535 10,38.383 12.44,42.603 19.231,40.882 23.324,43.22 24.786,48.5 
				29.714,48.5 31.176,43.22 35.269,40.882 42.06,42.603 44.5,38.383 39.571,33.535 			"/>
			
				<polygon id="Stroke-5" style="fill:none;stroke:#3A53A4;stroke-width:1.25;stroke-linecap:round;stroke-linejoin:round;" points="
				54.958,46.254 27.595,61.672 0.232,46.254 0.232,15.418 27.595,0 54.958,15.418 			"/>
		</g>
	</g>
</g>
</svg>
