<?xml version="1.0" encoding="iso-8859-1"?>
<!-- Generator: Adobe Illustrator 21.1.0, SVG Export Plug-In . SVG Version: 6.00 Build 0)  -->
<svg version="1.1" id="Layer_1" xmlns="http://www.w3.org/2000/svg" xmlns:xlink="http://www.w3.org/1999/xlink" x="0px" y="0px"
	 viewBox="0 0 31 32" style="enable-background:new 0 0 31 32;" xml:space="preserve">
<title>Instagram</title>
<desc>Created with Sketch.</desc>
<g id="Design">
	<g id="Home-_x5B_Mobile_x5D_" transform="translate(-95.000000, -4196.000000)">
		<g id="Page-1" transform="translate(95.000000, 4196.000000)">
			<g id="Instagram">
				<path id="Fill-1" style="fill:#FFFFFF;" d="M25.497,7.46c0,1.06-0.83,1.92-1.849,1.92c-1.021,0-1.851-0.861-1.851-1.92
					s0.831-1.919,1.851-1.919C24.667,5.54,25.497,6.401,25.497,7.46z M15.417,21.333c-2.839,0-5.139-2.387-5.139-5.333
					s2.3-5.333,5.139-5.333s5.139,2.387,5.139,5.333S18.256,21.333,15.417,21.333z M15.417,7.784C11.043,7.784,7.5,11.464,7.5,16
					c0,4.54,3.546,8.215,7.916,8.215c4.376,0,7.916-3.679,7.916-8.215C23.333,11.46,19.789,7.784,15.417,7.784z M15.417,2.88
					c4.115,0,4.606,0.021,6.231,0.095c1.503,0.073,2.32,0.332,2.861,0.553c0.722,0.289,1.233,0.636,1.775,1.195
					c0.538,0.56,0.872,1.092,1.152,1.841c0.209,0.563,0.461,1.409,0.529,2.969c0.073,1.688,0.09,2.195,0.09,6.467
					c0,4.271-0.018,4.78-0.095,6.467c-0.078,1.56-0.329,2.407-0.541,2.968c-0.288,0.751-0.614,1.28-1.154,1.844
					c-0.538,0.559-1.06,0.905-1.773,1.195c-0.541,0.219-1.37,0.48-2.873,0.551c-1.637,0.075-2.119,0.093-6.241,0.093
					c-4.127,0-4.608-0.02-6.244-0.099c-1.504-0.083-2.333-0.341-2.873-0.561c-0.731-0.3-1.233-0.639-1.772-1.199
					c-0.541-0.559-0.886-1.1-1.156-1.84c-0.212-0.56-0.461-1.421-0.54-2.981c-0.058-1.679-0.077-2.197-0.077-6.457
					c0-4.261,0.019-4.781,0.077-6.481c0.078-1.56,0.328-2.419,0.54-2.979c0.27-0.76,0.615-1.28,1.156-1.841
					C5.03,4.12,5.532,3.76,6.263,3.481C6.803,3.26,7.613,3,9.116,2.92c1.638-0.06,2.12-0.08,6.242-0.08L15.417,2.88z M15.417,0
					c-4.187,0-4.711,0.02-6.354,0.096C7.419,0.176,6.302,0.444,5.319,0.84C4.305,1.248,3.444,1.796,2.587,2.685
					S1.201,4.467,0.809,5.52C0.428,6.54,0.168,7.7,0.093,9.404C0.017,11.111,0,11.653,0,16s0.019,4.889,0.093,6.596
					c0.077,1.703,0.335,2.864,0.717,3.884c0.393,1.051,0.921,1.945,1.778,2.835c0.857,0.888,1.716,1.439,2.731,1.844
					c0.984,0.396,2.102,0.665,3.744,0.745C10.706,31.984,11.23,32,15.417,32c4.188,0,4.711-0.02,6.357-0.096
					c1.639-0.081,2.758-0.349,3.742-0.745c1.012-0.407,1.874-0.956,2.731-1.844c0.856-0.889,1.386-1.78,1.777-2.835
					c0.38-1.02,0.641-2.181,0.717-3.884c0.078-1.707,0.093-2.249,0.093-6.596s-0.018-4.889-0.093-6.596
					c-0.077-1.703-0.337-2.865-0.717-3.884c-0.392-1.052-0.921-1.945-1.777-2.835c-0.857-0.889-1.715-1.439-2.731-1.845
					c-0.984-0.396-2.103-0.665-3.742-0.744C20.128,0.016,19.605,0,15.417,0z"/>
			</g>
		</g>
	</g>
</g>
</svg>
