<?xml version="1.0" encoding="iso-8859-1"?>
<!-- Generator: Adobe Illustrator 21.1.0, SVG Export Plug-In . SVG Version: 6.00 Build 0)  -->
<svg version="1.1" id="Layer_1" xmlns="http://www.w3.org/2000/svg" xmlns:xlink="http://www.w3.org/1999/xlink" x="0px" y="0px"
	 viewBox="0 0 32 32" style="enable-background:new 0 0 32 32;" xml:space="preserve">
<g>
	<path style="fill:#FFFFFF;" d="M16,0.089C7.353,0.089,0.343,7.213,0.343,16c0,8.788,7.01,15.911,15.657,15.911
		c8.648,0,15.657-7.123,15.657-15.911C31.657,7.213,24.648,0.089,16,0.089z M12.338,23.348H9.167V12.98h3.171V23.348z
		 M10.732,11.708c-1.001,0-1.648-0.721-1.648-1.611c0-0.912,0.668-1.611,1.69-1.611c1.023,0,1.649,0.699,1.669,1.611
		C12.442,10.987,11.796,11.708,10.732,11.708z M23.916,23.348h-3.171v-5.746c0-1.336-0.459-2.247-1.606-2.247
		c-0.876,0-1.398,0.615-1.627,1.209c-0.084,0.212-0.105,0.509-0.105,0.805v5.979h-3.17v-7.06c0-1.293-0.041-2.374-0.084-3.307h2.754
		l0.146,1.442h0.062c0.418-0.679,1.44-1.675,3.151-1.675c2.086,0,3.65,1.42,3.65,4.473V23.348z"/>
</g>
</svg>
