<?xml version="1.0" encoding="iso-8859-1"?>
<!-- Generator: Adobe Illustrator 21.1.0, SVG Export Plug-In . SVG Version: 6.00 Build 0)  -->
<svg version="1.1" id="Layer_1" xmlns="http://www.w3.org/2000/svg" xmlns:xlink="http://www.w3.org/1999/xlink" x="0px" y="0px"
	 viewBox="0 0 58 63" style="enable-background:new 0 0 58 63;" xml:space="preserve">
<title>icon-project</title>
<desc>Created with Sketch.</desc>
<g id="Design">
	<g id="Home-_x5B_Mobile_x5D_" transform="translate(-143.000000, -1936.000000)">
		<g id="icon-project" transform="translate(144.000000, 1937.000000)">
			
				<polygon id="Stroke-1" style="fill:#FFFFFF;stroke:#862575;stroke-width:1.25;stroke-linecap:round;stroke-linejoin:round;" points="
				56,45.057 28,61 0,45.057 0,15.943 28,0 56,15.943 			"/>
			
				<polyline id="Stroke-3" style="fill:none;stroke:#862575;stroke-width:1.25;stroke-linecap:round;stroke-linejoin:round;" points="
				33.802,18.5 40.739,22.5 50.45,22.5 			"/>
			
				<polyline id="Stroke-4" style="fill:none;stroke:#862575;stroke-width:1.25;stroke-linecap:round;stroke-linejoin:round;" points="
				56,40.5 42.126,36.316 42.126,33.526 50.45,29.342 50.45,18.184 42.126,14 33.802,18.184 			"/>
			
				<polyline id="Stroke-6" style="fill:none;stroke:#862575;stroke-width:1.25;stroke-linecap:round;stroke-linejoin:round;" points="
				22.198,18.5 15.261,22.5 5.55,22.5 			"/>
			
				<polyline id="Stroke-7" style="fill:none;stroke:#862575;stroke-width:1.25;stroke-linecap:round;stroke-linejoin:round;" points="
				0,40.5 13.874,36.316 13.874,33.526 5.55,29.342 5.55,18.184 13.874,14 22.198,18.184 			"/>
			
				<polygon id="Stroke-9" style="fill:none;stroke:#862575;stroke-width:1.25;stroke-linecap:round;stroke-linejoin:round;" points="
				35.82,37.321 27.495,41.5 19.171,37.321 19.171,26.179 27.495,22 35.82,26.179 			"/>
			
				<polyline id="Stroke-10" style="fill:none;stroke:#862575;stroke-width:1.25;stroke-linecap:round;stroke-linejoin:round;" points="
				19.171,26.5 26.108,30.5 35.82,30.5 			"/>
			
				<polyline id="Stroke-11" style="fill:none;stroke:#862575;stroke-width:1.25;stroke-linecap:round;stroke-linejoin:round;" points="
				41.369,53 41.369,48.58 27.495,44.5 13.622,48.58 13.622,53 			"/>
			<path id="Stroke-12" style="fill:none;stroke:#862575;stroke-width:1.25;stroke-linecap:round;stroke-linejoin:round;" d="
				M27.748,49.5v4"/>
		</g>
	</g>
</g>
</svg>
