<?xml version="1.0" encoding="iso-8859-1"?>
<!-- Generator: Adobe Illustrator 21.1.0, SVG Export Plug-In . SVG Version: 6.00 Build 0)  -->
<svg version="1.1" id="Layer_1" xmlns="http://www.w3.org/2000/svg" xmlns:xlink="http://www.w3.org/1999/xlink" x="0px" y="0px"
	 viewBox="0 0 31 26" style="enable-background:new 0 0 31 26;" xml:space="preserve">
<title>Twitter</title>
<desc>Created with Sketch.</desc>
<g id="Design">
	<g id="Home-_x5B_Mobile_x5D_" transform="translate(-170.000000, -4199.000000)">
		<g id="Page-1" transform="translate(95.000000, 4196.000000)">
			<path id="Twitter" style="fill:#FFFFFF;" d="M105.268,6.453c-1.105,0.498-2.291,0.834-3.536,0.985
				c1.272-0.774,2.248-2.001,2.708-3.462c-1.19,0.717-2.508,1.238-3.91,1.518c-1.123-1.216-2.724-1.976-4.494-1.976
				c-3.4,0-6.157,2.801-6.157,6.256c0,0.491,0.054,0.968,0.16,1.426c-5.117-0.261-9.654-2.752-12.69-6.537
				c-0.53,0.924-0.834,1.999-0.834,3.146c0,2.17,1.087,4.085,2.739,5.207c-1.009-0.032-1.958-0.314-2.789-0.782
				c-0.001,0.026-0.001,0.052-0.001,0.079c0,3.031,2.123,5.56,4.939,6.135c-0.516,0.143-1.06,0.22-1.622,0.22
				c-0.396,0-0.782-0.039-1.158-0.112c0.783,2.485,3.058,4.295,5.751,4.345c-2.107,1.679-4.761,2.679-7.646,2.679
				c-0.497,0-0.987-0.03-1.468-0.088c2.724,1.776,5.96,2.812,9.438,2.812c11.324,0,17.517-9.534,17.517-17.802
				c0-0.27-0.006-0.541-0.018-0.809C103.398,8.809,104.442,7.707,105.268,6.453"/>
		</g>
	</g>
</g>
</svg>
