<?xml version="1.0" encoding="iso-8859-1"?>
<!-- Generator: Adobe Illustrator 21.1.0, SVG Export Plug-In . SVG Version: 6.00 Build 0)  -->
<svg version="1.1" id="Layer_1" xmlns="http://www.w3.org/2000/svg" xmlns:xlink="http://www.w3.org/1999/xlink" x="0px" y="0px" width="189" height="32"
	 viewBox="0 0 189 32" xml:space="preserve">
<g id="Design" style="opacity:0.5;">
	<g id="Home-_x5B_Mobile_x5D_" transform="translate(-93.000000, -4291.000000)">
		<g id="Group-13" transform="translate(-658.000000, 3858.000000)">
			<g id="Footer" transform="translate(45.000000, 173.000000)">
				<g id="Group-7" transform="translate(232.000000, 78.000000)">
					<g id="genuine-we-are-flip-web-placement-WHITE" transform="translate(474.000000, 182.000000)">
						<path id="Shape" style="fill:#FFFFFF;" d="M58.497,21.387c-0.103-0.02-0.207-0.033-0.312-0.04
							c-0.225-0.03-0.455,0.003-0.663,0.093l-0.046,0.033c-0.13,0.134-0.22,0.302-0.259,0.484c-0.045,0.178-0.068,0.361-0.066,0.544
							c0,0.086,0.046,0.119,0.133,0.133l0.318,0.046c0.223,0.034,0.45,0.014,0.663-0.06c0.405-0.159,0.438-0.743,0.438-1.107
							c-0.003-0.027-0.003-0.053,0-0.08H58.63L58.497,21.387z"/>
						<path id="Shape_1_" style="fill:#FFFFFF;" d="M66.375,8.906c-0.223-0.037-0.451-0.017-0.663,0.06
							c-0.405,0.159-0.444,0.743-0.438,1.107c0.003,0.027,0.003,0.053,0,0.08h0.073H65.5l0.318,0.04
							c0.226,0.027,0.455-0.007,0.663-0.099h0.046c0.129-0.134,0.216-0.302,0.252-0.484c0.05-0.177,0.075-0.36,0.073-0.544
							c0-0.093-0.053-0.126-0.133-0.133L66.375,8.906z"/>
						<path id="Shape_2_" style="fill:#FFFFFF;" d="M59.485,11.638c-0.318,0.935-0.663,1.85-1.041,2.772
							c-0.357,0.885-0.617,1.805-0.776,2.745c-0.184,0.785-0.103,1.608,0.232,2.341c0.191,0.347,0.51,0.607,0.889,0.723
							c0.399,0.102,0.819,0.084,1.207-0.053c0.398-0.145,0.77-0.353,1.101-0.617c0.34-0.263,0.645-0.569,0.909-0.909
							c0.26-0.359,0.482-0.743,0.663-1.147c0.198-0.428,0.359-0.871,0.484-1.326c0.085-0.312,0.154-0.629,0.206-0.948
							c-0.218,0.823-0.551,1.611-0.988,2.341c-0.396,0.708-1.007,1.273-1.744,1.611c-0.382,0.145-0.812,0.074-1.127-0.186
							c-0.319-0.259-0.5-0.651-0.491-1.061c0.023-0.452,0.109-0.899,0.259-1.326c0.126-0.471,0.285-0.935,0.444-1.393
							c0.332-0.928,0.703-1.837,1.081-2.752c0.378-0.915,0.756-1.824,1.18-2.712l0.796-1.651l0.398-0.816
							c0.133-0.259,0.265-0.524,0.424-0.776c-0.487-0.08-0.979-0.118-1.472-0.113c-0.195,0.001-0.379,0.089-0.504,0.239
							c-0.12,0.184-0.222,0.38-0.305,0.584c-0.378,0.82-0.859,1.59-1.432,2.288c-0.72,0.89-1.643,1.593-2.692,2.049
							c0.855-1.771,1.572-3.601,2.367-5.398c0.361-0.853,0.805-1.668,1.326-2.434c0.236-0.347,0.519-0.66,0.842-0.928
							c0.313-0.257,0.662-0.466,1.035-0.623c0.765-0.346,1.635-0.384,2.427-0.106c0.8,0.318,1.388,1.015,1.565,1.857
							c0.161,0.879,0.018,1.786-0.405,2.573c-0.432,0.741-1.037,1.367-1.764,1.824l-0.245,0.179
							c0.431-0.178,0.842-0.401,1.227-0.663c0.346-0.269,0.646-0.591,0.889-0.955c0.494-0.738,0.792-1.589,0.869-2.474
							c0.01-0.128,0.01-0.257,0-0.385c0.033-0.868-0.198-1.726-0.663-2.46c-0.442-0.665-1.101-1.157-1.863-1.393
							c-1.614-0.381-3.311,0.087-4.503,1.24c-0.641,0.598-1.177,1.3-1.585,2.076c-0.464,0.849-0.855,1.731-1.24,2.613
							S56.66,7.925,56.269,8.84c-0.391,0.915-0.756,1.837-1.147,2.752c-0.08,0.192-0.159,0.385-0.245,0.57
							c-0.497,0.043-0.995,0.043-1.492,0l-0.736-0.073c-0.208-0.007-0.415-0.038-0.617-0.093c-0.091-0.043-0.177-0.094-0.259-0.153
							l-0.279-0.159c-0.188-0.092-0.383-0.167-0.584-0.225c-0.401-0.112-0.818-0.159-1.233-0.139
							c-1.567,0.103-3.005,0.907-3.913,2.188c-0.913,1.239-1.133,2.859-0.584,4.297c0.289,0.702,0.781,1.302,1.413,1.724
							c0.629,0.405,1.345,0.657,2.089,0.736c1.668,0.179,3.334-0.358,4.582-1.479c0.637-0.602,1.162-1.311,1.552-2.096
							c0.186-0.351,0.345-0.716,0.517-1.074c0.172-0.358,0.318-0.663,0.464-0.975c0.318-0.71,0.63-1.426,0.942-2.135
							C57.699,12.38,58.628,12.085,59.485,11.638z M54.246,13.88c-0.159,0.378-0.318,0.749-0.464,1.127
							c-0.183,0.428-0.394,0.845-0.63,1.247c-0.231,0.379-0.493,0.738-0.783,1.074c-0.271,0.318-0.568,0.613-0.889,0.882
							c-0.303,0.264-0.651,0.471-1.028,0.61c-0.814,0.279-1.706,0.224-2.48-0.153c-0.694-0.362-1.212-0.989-1.439-1.737
							c-0.214-0.834-0.103-1.719,0.312-2.474c0.371-0.714,0.958-1.292,1.678-1.651c0.761-0.402,1.638-0.527,2.48-0.351
							c0.397,0.088,0.765,0.278,1.068,0.55c0.297,0.298,0.502,0.676,0.59,1.088c0.054,0.218,0.09,0.44,0.106,0.663
							c0.03,0.231,0.03,0.465,0,0.696c0.033,0,0.04-0.146,0.046-0.172c0.007-0.027,0.046-0.212,0.066-0.318
							c0.066-0.287,0.104-0.581,0.113-0.875c0.016-0.277-0.015-0.556-0.093-0.822c-0.094-0.253-0.212-0.498-0.351-0.729
							c0.724,0.088,1.452,0.131,2.182,0.126C54.598,13.077,54.412,13.475,54.246,13.88z"/>
						<path id="Shape_3_" style="fill:#FFFFFF;" d="M78.79,13.78c-0.289-0.704-0.784-1.305-1.419-1.724
							c-0.627-0.405-1.34-0.657-2.082-0.736c-1.667-0.182-3.334,0.353-4.582,1.472c-0.637,0.601-1.163,1.311-1.552,2.096
							c-0.186,0.351-0.345,0.716-0.524,1.074s-0.318,0.663-0.464,0.975c-0.318,0.716-0.663,1.426-0.942,2.142
							c-0.948,0.129-1.866,0.422-2.712,0.869c0.318-0.935,0.663-1.85,1.041-2.772c0.358-0.886,0.616-1.809,0.769-2.752
							c0.19-0.781,0.11-1.604-0.225-2.334c-0.191-0.347-0.51-0.607-0.889-0.723c-0.401-0.102-0.823-0.084-1.214,0.053
							c-0.397,0.142-0.767,0.351-1.094,0.617c-0.342,0.263-0.649,0.568-0.915,0.909c-0.26,0.359-0.482,0.743-0.663,1.147
							c-0.203,0.426-0.365,0.87-0.484,1.326c-0.086,0.318-0.153,0.63-0.212,0.955c0.218-0.818,0.551-1.602,0.988-2.328
							c0.393-0.711,1.004-1.277,1.744-1.611c0.379-0.16,0.814-0.105,1.141,0.146c0.317,0.257,0.498,0.646,0.491,1.054
							c-0.025,0.467-0.111,0.928-0.259,1.373c-0.133,0.471-0.285,0.928-0.444,1.393c-0.332,0.928-0.71,1.837-1.081,2.745
							c-0.371,0.909-0.756,1.824-1.187,2.719c-0.259,0.55-0.524,1.101-0.789,1.645c-0.133,0.279-0.272,0.544-0.405,0.816
							c-0.122,0.267-0.262,0.527-0.418,0.776c0.487,0.08,0.979,0.113,1.472,0.099c0.192-0.003,0.374-0.091,0.497-0.239
							c0.123-0.186,0.228-0.383,0.312-0.59c0.375-0.82,0.857-1.587,1.432-2.281c0.72-0.891,1.643-1.597,2.692-2.056
							c-0.855,1.777-1.578,3.608-2.374,5.398c-0.359,0.853-0.804,1.669-1.326,2.434c-0.238,0.342-0.519,0.651-0.836,0.922
							c-0.317,0.253-0.667,0.461-1.041,0.617c-0.761,0.351-1.63,0.391-2.421,0.113c-0.804-0.318-1.394-1.018-1.572-1.863
							c-0.154-0.877-0.009-1.781,0.411-2.566c0.434-0.739,1.036-1.367,1.757-1.83l0.252-0.172c-0.432,0.175-0.844,0.397-1.227,0.663
							c-0.344,0.27-0.644,0.592-0.889,0.955c-0.503,0.738-0.81,1.592-0.895,2.48c0,0.126,0,0.259,0,0.385
							c-0.032,0.866,0.198,1.722,0.663,2.454c0.44,0.668,1.099,1.163,1.863,1.399c1.613,0.373,3.305-0.096,4.496-1.247
							c0.643-0.598,1.176-1.302,1.578-2.082c0.471-0.842,0.855-1.724,1.247-2.606l1.194-2.752c0.385-0.915,0.749-1.837,1.141-2.759
							l0.252-0.57c0.494-0.04,0.991-0.04,1.485,0l0.743,0.066c0.209,0.011,0.415,0.044,0.617,0.099
							c0.09,0.038,0.174,0.087,0.252,0.146l0.285,0.166c0.186,0.092,0.379,0.167,0.577,0.225c0.404,0.109,0.822,0.156,1.24,0.139
							c1.562-0.102,2.996-0.901,3.906-2.175C79.105,16.834,79.33,15.219,78.79,13.78z M77.145,17.129
							c-0.373,0.712-0.96,1.29-1.678,1.651c-0.755,0.399-1.624,0.523-2.46,0.351c-0.398-0.087-0.766-0.277-1.068-0.55
							c-0.299-0.298-0.506-0.675-0.597-1.088c-0.046-0.208-0.08-0.418-0.099-0.63c-0.03-0.231-0.03-0.465,0-0.696
							c-0.033,0-0.04,0.146-0.046,0.172c-0.007,0.027-0.046,0.212-0.073,0.318c-0.064,0.277-0.101,0.558-0.113,0.842
							c-0.023,0.277,0.004,0.555,0.08,0.822c0.094,0.253,0.212,0.498,0.351,0.729c-0.726-0.088-1.457-0.131-2.188-0.126
							c0.146-0.418,0.332-0.816,0.497-1.227c0.166-0.411,0.312-0.743,0.464-1.121c0.194-0.429,0.416-0.846,0.663-1.247
							c0.229-0.38,0.491-0.739,0.783-1.074c0.265-0.322,0.56-0.617,0.882-0.882c0.298-0.261,0.639-0.468,1.008-0.61
							c0.814-0.28,1.706-0.225,2.48,0.153c0.697,0.359,1.219,0.987,1.446,1.737C77.688,15.492,77.569,16.378,77.145,17.129z"/>
						<path id="Shape_4_" style="fill:#FFFFFF;" d="M0.683,13.581c-0.06-0.219,0-0.365,0.239-0.365h0.491
							c0.125-0.007,0.242,0.064,0.292,0.179l1.161,4.191l1.797-4.37c0.05-0.103,0.158-0.166,0.272-0.159h0.08
							c0.113-0.005,0.217,0.058,0.265,0.159l1.784,4.39l1.147-4.211c0.042-0.112,0.152-0.184,0.272-0.179h0.491
							c0.239,0,0.298,0.146,0.239,0.365L7.48,19.55c-0.05,0.103-0.158,0.166-0.272,0.159h-0.08
							c-0.114,0.007-0.221-0.056-0.272-0.159l-1.936-4.768L3.044,19.55c-0.05,0.103-0.158,0.166-0.272,0.159h-0.08
							c-0.116,0.013-0.226-0.052-0.272-0.159L0.683,13.581z"/>
						<path id="Shape_5_" style="fill:#FFFFFF;" d="M13.542,13.058c1.548-0.041,2.838,1.18,2.879,2.729
							c0.001,0.061,0.001,0.121-0.001,0.182c0.01,0.143,0.01,0.288,0,0.431c-0.011,0.15-0.135,0.266-0.285,0.265h-4.576
							c0.08,1.131,0.996,2.021,2.129,2.069c0.558-0.009,1.103-0.174,1.572-0.477c0.225-0.126,0.318-0.206,0.444,0
							s0.179,0.239,0.272,0.365s0.179,0.239-0.06,0.418c-0.684,0.483-1.503,0.739-2.341,0.729c-1.923,0-3.117-1.512-3.117-3.316
							c-0.143-1.726,1.141-3.242,2.867-3.385C13.397,13.062,13.469,13.058,13.542,13.058z M15.326,15.777
							c-0.048-0.959-0.824-1.721-1.784-1.751c-1.012-0.007-1.868,0.746-1.989,1.751H15.326z"/>
						<path id="Shape_6_" style="fill:#FFFFFF;" d="M23.761,15.538c0.449,0.012,0.895,0.081,1.326,0.206
							c0-1.174-0.126-1.718-1.035-1.718c-0.65,0.005-1.294,0.123-1.903,0.351c-0.159,0.066-0.259,0-0.305-0.159l-0.126-0.398
							c-0.055-0.128,0.004-0.276,0.131-0.331c0.013-0.006,0.027-0.01,0.041-0.014c0.704-0.281,1.456-0.423,2.215-0.418
							c1.618,0,1.989,0.829,1.989,2.653v3.535c-0.01,0.163-0.142,0.292-0.305,0.298h-0.298c-0.172,0-0.225-0.093-0.272-0.239
							l-0.126-0.431c-0.522,0.536-1.241,0.836-1.989,0.829c-1.065,0.036-1.958-0.798-1.995-1.863
							c-0.003-0.073-0.001-0.147,0.005-0.22C21.221,16.446,22.13,15.538,23.761,15.538z M23.35,18.781
							c0.688-0.014,1.333-0.342,1.751-0.889v-1.253c-0.414-0.192-0.87-0.281-1.326-0.259c-0.889,0-1.525,0.444-1.525,1.273
							c-0.029,0.593,0.427,1.097,1.019,1.127C23.295,18.781,23.323,18.781,23.35,18.781z"/>
						<path id="Shape_7_" style="fill:#FFFFFF;" d="M28.357,13.522c0.007-0.166,0.139-0.298,0.305-0.305h0.298
							c0.134-0.002,0.249,0.094,0.272,0.225l0.126,0.458c0.472-0.562,1.177-0.873,1.91-0.842c0.477,0,1.267,0.08,1.114,0.524
							l-0.192,0.544c-0.08,0.206-0.225,0.206-0.385,0.139c-0.196-0.08-0.405-0.123-0.617-0.126c-0.686-0.02-1.336,0.306-1.731,0.869
							v4.244c-0.007,0.166-0.139,0.298-0.305,0.305h-0.491c-0.166-0.007-0.298-0.139-0.305-0.305V13.522z"/>
						<path id="Shape_8_" style="fill:#FFFFFF;" d="M36.275,13.058c1.552-0.038,2.842,1.19,2.879,2.743
							c0.001,0.056,0.001,0.112-0.001,0.168c0,0.113,0,0.318,0,0.431c-0.013,0.148-0.137,0.263-0.285,0.265h-4.582
							c0.083,1.129,0.997,2.018,2.129,2.069c0.558-0.01,1.102-0.175,1.572-0.477c0.219-0.126,0.318-0.206,0.444,0
							s0.172,0.239,0.272,0.365c0.099,0.126,0.172,0.239-0.066,0.418c-0.682,0.482-1.499,0.737-2.334,0.729
							c-1.923,0-3.117-1.512-3.117-3.316c-0.143-1.726,1.141-3.242,2.867-3.385C36.126,13.062,36.2,13.058,36.275,13.058z
							 M38.052,15.777c-0.044-0.958-0.818-1.721-1.777-1.751c-1.012-0.007-1.868,0.746-1.989,1.751H38.052z"/>
						<path id="Shape_9_" style="fill:#FFFFFF;" d="M86.721,15.538c0.449,0.012,0.895,0.081,1.326,0.206
							c0-1.174-0.126-1.718-1.035-1.718c-0.65,0.004-1.294,0.123-1.903,0.351c-0.159,0.066-0.259,0-0.305-0.159l-0.126-0.398
							c-0.055-0.128,0.004-0.276,0.131-0.331c0.013-0.006,0.027-0.01,0.041-0.014c0.702-0.281,1.452-0.422,2.208-0.418
							c1.625,0,2.023,0.829,2.023,2.653v3.535c-0.01,0.163-0.142,0.292-0.305,0.298h-0.298c-0.179,0-0.225-0.093-0.272-0.239
							l-0.066-0.398c-0.522,0.536-1.241,0.836-1.989,0.829c-1.065,0.036-1.958-0.798-1.994-1.863
							c-0.003-0.071-0.001-0.142,0.005-0.212C84.161,16.446,85.083,15.538,86.721,15.538z M86.31,18.781
							c0.688-0.014,1.333-0.342,1.751-0.889v-1.253c-0.414-0.192-0.87-0.281-1.326-0.259c-0.889,0-1.525,0.444-1.525,1.273
							c-0.029,0.593,0.427,1.097,1.019,1.127C86.256,18.781,86.283,18.781,86.31,18.781z"/>
						<path id="Shape_10_" style="fill:#FFFFFF;" d="M91.317,13.522c0.007-0.166,0.139-0.298,0.305-0.305h0.298
							c0.123-0.016,0.235,0.07,0.252,0.192l0.146,0.491c0.624-0.528,1.411-0.826,2.228-0.842c1.844,0,2.46,1.207,2.46,2.865v3.349
							c-0.003,0.164-0.134,0.298-0.298,0.305h-0.511c-0.166-0.007-0.298-0.139-0.305-0.305v-3.349c0-1.207-0.537-1.797-1.426-1.797
							c-0.77,0.032-1.501,0.346-2.056,0.882v4.244c-0.003,0.164-0.134,0.298-0.298,0.305h-0.491
							c-0.166-0.007-0.298-0.139-0.305-0.305v-5.75V13.522z"/>
						<path id="Shape_11_" style="fill:#FFFFFF;" d="M101.775,13.058c0.595-0.012,1.182,0.132,1.704,0.418V8.754
							c0.003-0.164,0.134-0.298,0.298-0.305h0.491c0.166,0.007,0.298,0.139,0.305,0.305v10.518
							c-0.007,0.166-0.139,0.298-0.305,0.305h-0.332c-0.138-0.011-0.251-0.115-0.272-0.252l-0.093-0.431
							c-0.519,0.523-1.22,0.826-1.956,0.842c-1.618,0-2.891-1.525-2.891-3.356C98.724,14.55,99.872,13.058,101.775,13.058z
							 M101.728,18.734c0.722-0.042,1.373-0.446,1.731-1.074v-3.183c-0.476-0.245-1.003-0.375-1.539-0.378
							c-1.386,0-2.082,1.001-2.082,2.275C99.838,17.647,100.568,18.734,101.728,18.734z"/>
						<path id="Shape_12_" style="fill:#FFFFFF;" d="M109.773,13.581c-0.066-0.219,0-0.365,0.239-0.365h0.491
							c0.124-0.009,0.239,0.064,0.285,0.179l1.161,4.191l1.791-4.37c0.052-0.101,0.158-0.164,0.272-0.159h0.08
							c0.114-0.007,0.221,0.056,0.272,0.159l1.777,4.39l1.18-4.211c0.044-0.111,0.153-0.182,0.272-0.179h0.497
							c0.232,0,0.298,0.146,0.232,0.365l-1.731,5.968c-0.049,0.104-0.157,0.167-0.272,0.159h-0.08
							c-0.113,0.005-0.217-0.058-0.265-0.159l-1.97-4.742l-1.877,4.768c-0.046,0.103-0.153,0.166-0.265,0.159h-0.08
							c-0.116,0.013-0.226-0.052-0.272-0.159L109.773,13.581z"/>
						<path id="Shape_13_" style="fill:#FFFFFF;" d="M122.625,13.058c1.548-0.041,2.838,1.18,2.879,2.729
							c0.001,0.061,0.001,0.121-0.001,0.182c0,0.113,0,0.318-0.033,0.431c-0.011,0.15-0.135,0.266-0.285,0.265h-4.549
							c0.08,1.131,0.996,2.021,2.129,2.069c0.558-0.01,1.102-0.175,1.572-0.477c0.225-0.126,0.318-0.206,0.444,0
							c0.126,0.206,0.172,0.239,0.272,0.365c0.099,0.126,0.172,0.239-0.066,0.418c-0.694,0.475-1.52,0.72-2.361,0.696
							c-1.923,0-3.117-1.512-3.117-3.316c-0.125-1.728,1.175-3.23,2.903-3.354C122.482,13.06,122.553,13.058,122.625,13.058z
							 M124.402,15.777c-0.044-0.958-0.818-1.721-1.777-1.751c-1.012-0.007-1.868,0.746-1.989,1.751H124.402z"/>
						<path id="Shape_14_" style="fill:#FFFFFF;" d="M130.768,13.522c0.007-0.166,0.139-0.298,0.305-0.305h0.298
							c0.123-0.013,0.235,0.071,0.259,0.192l0.139,0.491c0.55-0.544,1.294-0.848,2.069-0.842c0.822-0.062,1.611,0.336,2.049,1.035
							c0.649-0.607,1.487-0.972,2.374-1.035c1.844,0,2.46,1.207,2.46,2.865v3.349c-0.003,0.164-0.134,0.298-0.298,0.305h-0.557
							c-0.166-0.007-0.298-0.139-0.305-0.305v-3.349c0-1.194-0.504-1.797-1.426-1.797c-0.727,0.04-1.413,0.355-1.917,0.882
							c0.052,0.3,0.079,0.604,0.08,0.909v3.349c-0.003,0.164-0.134,0.298-0.298,0.305h-0.511c-0.166-0.007-0.298-0.139-0.305-0.305
							v-3.349c0-1.207-0.537-1.797-1.505-1.797c-0.704,0.025-1.365,0.347-1.817,0.889v4.244c-0.003,0.164-0.134,0.298-0.298,0.305
							h-0.491c-0.166-0.007-0.298-0.139-0.305-0.305v-5.75V13.522z"/>
						<path id="Shape_15_" style="fill:#FFFFFF;" d="M144.966,15.538c0.449,0.011,0.895,0.08,1.326,0.206
							c0-1.174-0.126-1.718-1.035-1.718c-0.65,0.005-1.294,0.123-1.903,0.351c-0.159,0.066-0.252,0-0.305-0.159l-0.126-0.398
							c-0.054-0.128,0.005-0.276,0.133-0.33c0.015-0.006,0.03-0.011,0.046-0.015c0.702-0.283,1.452-0.424,2.208-0.418
							c1.618,0,1.989,0.829,1.989,2.653v3.535c-0.007,0.162-0.137,0.292-0.298,0.298h-0.305c-0.172,0-0.219-0.093-0.272-0.239
							l-0.126-0.431c-0.522,0.536-1.241,0.836-1.989,0.829c-1.065,0.036-1.958-0.798-1.995-1.863
							c-0.003-0.073-0.001-0.147,0.005-0.22C142.42,16.446,143.328,15.538,144.966,15.538z M144.549,18.781
							c0.688-0.014,1.333-0.342,1.751-0.889v-1.253c-0.414-0.193-0.87-0.282-1.326-0.259c-0.895,0-1.532,0.444-1.532,1.273
							c-0.03,0.593,0.427,1.097,1.019,1.127C144.49,18.781,144.519,18.781,144.549,18.781z"/>
						<path id="Shape_16_" style="fill:#FFFFFF;" d="M152.148,13.058c0.593-0.013,1.178,0.131,1.698,0.418V8.754
							c0.007-0.166,0.139-0.298,0.305-0.305h0.491c0.166,0.007,0.298,0.139,0.305,0.305v10.518
							c-0.007,0.166-0.139,0.298-0.305,0.305h-0.332c-0.139-0.008-0.253-0.114-0.272-0.252l-0.093-0.431
							c-0.527,0.531-1.241,0.834-1.989,0.842c-1.625,0-2.891-1.525-2.891-3.356C149.065,14.55,150.238,13.058,152.148,13.058z
							 M152.102,18.734c0.721-0.044,1.371-0.448,1.731-1.074v-3.183c-0.479-0.245-1.008-0.374-1.545-0.378
							c-1.379,0-2.076,1.001-2.076,2.275C150.212,17.647,150.941,18.734,152.102,18.734z"/>
						<path id="Shape_17_" style="fill:#FFFFFF;" d="M159.874,13.058c1.548-0.041,2.838,1.18,2.879,2.729
							c0.001,0.061,0.001,0.121-0.001,0.182c0,0.113,0,0.318-0.033,0.431c-0.013,0.148-0.137,0.263-0.285,0.265h-4.582
							c0.083,1.132,1.001,2.021,2.135,2.069c0.558-0.01,1.102-0.175,1.572-0.477c0.219-0.126,0.318-0.206,0.444,0
							c0.126,0.206,0.172,0.239,0.272,0.365s0.172,0.239-0.066,0.418c-0.682,0.482-1.499,0.737-2.334,0.729
							c-1.923,0-3.117-1.512-3.117-3.316c-0.143-1.726,1.141-3.242,2.867-3.385C159.708,13.062,159.791,13.058,159.874,13.058z
							 M161.651,15.777c-0.044-0.958-0.818-1.721-1.777-1.751c-1.012-0.007-1.868,0.746-1.989,1.751H161.651z"/>
						<path id="Shape_18_" style="fill:#FFFFFF;" d="M168.422,14.172h-0.809c-0.165,0-0.298-0.133-0.298-0.298v-0.351
							c-0.007-0.161,0.117-0.298,0.278-0.305c0.007,0,0.013-0.001,0.021,0h0.809v-1.764c0.007-0.164,0.141-0.295,0.305-0.298h0.511
							c0.161,0.003,0.288,0.137,0.285,0.298l0,0v1.797h1.844c0.161-0.004,0.295,0.123,0.298,0.284c0,0.007,0,0.013,0,0.021v0.351
							c0,0.165-0.133,0.298-0.298,0.298h-1.844v3.72c0,0.663,0.159,0.763,0.524,0.763c0.407-0.037,0.802-0.157,1.161-0.351
							c0.239-0.126,0.298,0,0.378,0.099l0.239,0.398c0.113,0.186,0.066,0.285-0.113,0.391c-0.556,0.322-1.182,0.509-1.824,0.544
							c-1.273,0-1.466-0.763-1.466-1.751v-3.813V14.172z"/>
						<path id="Shape_19_" style="fill:#FFFFFF;" d="M173.462,8.754c0.007-0.166,0.139-0.298,0.305-0.305h0.491
							c0.164,0.007,0.295,0.141,0.298,0.305V13.9c0.587-0.53,1.345-0.829,2.135-0.842c1.572,0,2.46,1.001,2.46,2.865v3.349
							c-0.003,0.164-0.134,0.298-0.298,0.305h-0.524c-0.166-0.007-0.298-0.139-0.305-0.305v-3.349c0-1.207-0.537-1.797-1.426-1.797
							c-0.764,0.033-1.489,0.347-2.036,0.882v4.257c-0.007,0.166-0.139,0.298-0.305,0.305h-0.491
							c-0.166-0.007-0.298-0.139-0.305-0.305V8.754z"/>
						<path id="Shape_20_" style="fill:#FFFFFF;" d="M181.108,9.53c-0.007-0.414,0.322-0.755,0.736-0.763c0.005,0,0.009,0,0.013,0
							c0.418-0.004,0.759,0.332,0.763,0.749c0,0.005,0,0.009,0,0.013c-0.003,0.418-0.345,0.753-0.763,0.749l0,0
							C181.444,10.279,181.108,9.943,181.108,9.53L181.108,9.53z M181.334,13.509c0.003-0.164,0.134-0.298,0.298-0.305h0.491
							c0.166,0.007,0.298,0.139,0.305,0.305v5.75c-0.007,0.166-0.139,0.298-0.305,0.305h-0.477
							c-0.164-0.007-0.295-0.141-0.298-0.305L181.334,13.509z"/>
						<path id="Shape_21_" style="fill:#FFFFFF;" d="M184.298,18.688c0.06-0.099,0.172-0.318,0.219-0.398
							c0.1-0.131,0.287-0.157,0.418-0.057c0.005,0.003,0.009,0.007,0.013,0.011c0.428,0.334,0.95,0.529,1.492,0.557
							c0.663,0,1.035-0.338,1.035-0.769c0-0.55-0.477-0.809-1.399-1.267c-0.922-0.458-1.777-0.968-1.777-2.049
							c0-0.663,0.544-1.658,1.989-1.658c0.624-0.011,1.237,0.162,1.764,0.497c0.153,0.115,0.195,0.326,0.099,0.491l-0.126,0.252
							c-0.091,0.165-0.295,0.229-0.464,0.146c-0.392-0.218-0.826-0.349-1.273-0.385c-0.71,0-0.902,0.365-0.902,0.663
							c0,0.524,0.524,0.763,1.174,1.081c1.101,0.524,2.082,1.021,2.082,2.162c-0.1,1.094-1.068,1.901-2.162,1.8
							c-0.011-0.001-0.022-0.002-0.033-0.003c-0.75,0.011-1.48-0.243-2.062-0.716C184.281,18.958,184.246,18.813,184.298,18.688z"/>
					</g>
				</g>
			</g>
		</g>
	</g>
</g>
</svg>
